<svg width="90" height="90" fill="none" xmlns="http://www.w3.org/2000/svg"><path d="M78.96 7.59H11.04c-1.91 0-3.46 1.57-3.46 3.5v72.23c0 1.93 1.55 3.5 3.46 3.5h67.92c1.91 0 3.46-1.57 3.46-3.5V11.09c0-1.93-1.55-3.5-3.46-3.5z" fill="#5D9948"/><path d="M78.96 86.82H11.04c-1.91 0-3.46-1.58-3.46-3.53V45.01h74.83v38.28c0 1.95-1.55 3.53-3.46 3.53h.01z" fill="url(#a)"/><path d="M78.96 86.82H11.04c-1.91 0-3.46-1.59-3.46-3.55v-7.45h74.83v7.45c0 1.96-1.55 3.55-3.46 3.55h.01z" fill="#D1CCC5"/><path d="M85.56 78.01H4.44c-2.22 0-3.86-2.08-3.37-4.27l6.52-28.75h74.82l6.52 28.75c.5 2.18-1.15 4.27-3.37 4.27z" fill="#81B64C"/><path d="M27.42 7.59v6.09c0 1.96 1.48 3.56 3.3 3.56 1.82 0 3.3-1.59 3.3-3.56V7.59h-6.6zM58.23 7.59v6.09c0 1.96 1.48 3.56 3.3 3.56 1.82 0 3.3-1.59 3.3-3.56V7.59h-6.6z" fill="#45753C"/><path d="M28.49 16.39c-1.82 0-3.3-1.59-3.3-3.56V6.74c0-1.96 1.48-3.56 3.3-3.56 1.82 0 3.3 1.59 3.3 3.56v6.09c0 1.96-1.48 3.56-3.3 3.56zM59.31 16.39c-1.82 0-3.3-1.59-3.3-3.56V6.74c0-1.96 1.48-3.56 3.3-3.56 1.82 0 3.3 1.59 3.3 3.56v6.09c0 1.96-1.48 3.56-3.3 3.56z" fill="#E8E6E1"/><path d="M71.41 45.98c0-3.53-2.91-6.38-6.49-6.38-1.23 0-2.38.34-3.35.92-.37.22-.83.23-1.2.02-.37-.21-.61-.6-.61-1.02v-7.6c0-1.17-1-2.11-2.19-2.11h-9.48c-.42 0-.81-.22-1.02-.57-.21-.36-.22-.8-.02-1.16.52-.92.81-1.97.81-3.1 0-3.53-2.91-6.39-6.49-6.39s-6.49 2.86-6.49 6.39c0 1.12.29 2.18.81 3.1.2.36.2.8-.02 1.16-.21.36-.6.57-1.02.57h-9.48c-1.19 0-2.18.94-2.18 2.11v7.42c0 .41.22.79.58 1 .36.21.81.22 1.17.03.92-.49 1.97-.76 3.08-.76 3.59 0 6.49 2.86 6.49 6.38" fill="#fff"/><path d="M71.28 45c.08.45.13.91.13 1.39 0 3.86-2.91 6.99-6.49 6.99-1.23 0-2.38-.37-3.35-1.01a1.11 1.11 0 0 0-1.2-.02c-.37.23-.61.65-.61 1.12l2.2 11.22c0 1.28-1 2.32-2.19 2.32h-36.8c-1.19 0-2.18-1.04-2.18-2.32l2.2-11.02c0-.45.22-.87.58-1.1.36-.23.81-.24 1.17-.03.92.53 1.97.84 3.08.84 3.59 0 6.49-3.13 6.49-6.99 0-.48-.04-.94-.13-1.39h37.1z" fill="#E8E6E1"/><defs><linearGradient id="a" x1="19.45" y1="56.712" x2="51.602" y2="91.899" gradientUnits="userSpaceOnUse"><stop stop-color="#C2CECE"/><stop offset="1" stop-color="#97AAAA"/></linearGradient></defs></svg>