<svg width="90" height="90" fill="none" xmlns="http://www.w3.org/2000/svg"><path d="M82.85 34.75C75.23 21.67 50 6.28 49.88 6.22 48.38 5.42 46.7 5 45 5c-1.7 0-3.38.42-4.88 1.22-.08.06-25.35 15.45-33 28.53A13.711 13.711 0 0 0 5 41.44c0 14 3.84 24.91 5.34 24.91h69.32c1.5 0 5.34-10.95 5.34-24.91-.12-2.38-.86-4.68-2.15-6.69z" fill="#AED0F0"/><path d="M72.85 10h-55.7a4.646 4.646 0 0 0-4.65 4.65v36.87a3.194 3.194 0 0 0 2.5 3.25c.67.37 1.42.56 2.18.57l7.57-1.1 20.16 15.42.43-.31.42.31L66 54.24l6.9 1.1a4.52 4.52 0 0 0 2.1-.57 3.202 3.202 0 0 0 2.47-3.25V14.65c0-1.23-.49-2.41-1.35-3.28A4.669 4.669 0 0 0 72.85 10z" fill="#fff"/><path d="M48.08 61.27h-6.6v3.95h6.6v-3.95z" fill="#6C9D41"/><path d="M57.47 50.42c-.43-.48-.89-.94-1.4-1.33-5-3.78-5.55-7.06-5.62-9.13h3.6l.4-.74c.6-1.06.92-2.26.91-3.48V35l-3.9-2.57a7.87 7.87 0 0 0 1.66-3.33c.28-1.22.28-2.5-.02-3.72-.3-1.22-.88-2.35-1.7-3.31-.82-.95-1.85-1.7-3.01-2.18l-.57-.29-.09.05a8.06 8.06 0 0 0-2.39-.37c-1.52 0-3.01.43-4.3 1.25a8.002 8.002 0 0 0-1.83 11.89l-3.9 2.57v.76c0 1.22.31 2.42.91 3.48l.4.74h3.6v.02c-.08 2.11-.74 5.34-5.62 9.06-.69.54-1.29 1.18-1.83 1.87l12.17 9.55 12.53-10.06v.01z" fill="#81B64C"/><path d="M57.47 50.42c1.91 2.15 2.98 5.16 2.98 8.58 0 2.65-5.08 4.07-15.11 4.07S30.22 61.7 30.22 59c0-1.15.13-2.3.4-3.42h-.07l.43-1.26v-.12l.08-.2c.39-1.12.99-2.15 1.71-3.07L12.5 35.01v38.53h65V34.32l-20.03 16.1z" fill="#AED0F0"/><path d="M30.98 54.2v.12l-.43 1.26h.07a14.6 14.6 0 0 0-.4 3.42c0 2.7 5.09 4.07 15.12 4.07S60.45 61.65 60.45 59c0-3.43-1.07-6.44-2.98-8.58L44.94 60.48l-12.17-9.55c-.72.93-1.32 1.95-1.71 3.07l-.08.2z" fill="#5D9948"/><path d="M78.26 38.28 44.94 64.67 11.77 38.41C9.15 36.33 5.05 38 5 41.37v38.3c0 1.41.57 2.76 1.57 3.76s2.35 1.56 3.76 1.57h69.34c1.41 0 2.76-.57 3.76-1.57s1.56-2.35 1.57-3.76V41.44c0-.28-.02-.57-.07-.85-.49-3.02-4.27-4.21-6.67-2.31z" fill="#fff"/><path d="M45 75.76 29.58 63l-23 20.39c.49.5 1.07.91 1.72 1.18.65.28 1.34.42 2.04.43h69.32c.71 0 1.42-.15 2.07-.42.65-.27 1.25-.68 1.75-1.19L60.43 63 45 75.76z" fill="#AED0F0"/></svg>